HIERARCHY
ROOT root
{
	OFFSET 0.00 0.00 0.00
	CHANNELS 6 Xposition Yposition Zposition Zrotation Xrotation Yrotation
	JOINT lowerback
	{
		OFFSET 0 0 0
		CHANNELS 6 Xposition Yposition Zposition Zrotation Xrotation Yrotation
		JOINT upperback
		{
			OFFSET -0.214371 12.3768 -1.12219
			CHANNELS 6 Xposition Yposition Zposition Zrotation Xrotation Yrotation
			JOINT thorax
			{
				OFFSET -0.00137213 12.3873 0.296195
				CHANNELS 6 Xposition Yposition Zposition Zrotation Xrotation Yrotation
				JOINT lowerneck
				{
					OFFSET 0.0883157 12.5016 0.82912
					CHANNELS 6 Xposition Yposition Zposition Zrotation Xrotation Yrotation
					JOINT upperneck
					{
						OFFSET -1 10.1794 0.943522
						CHANNELS 6 Xposition Yposition Zposition Zrotation Xrotation Yrotation
						JOINT head
						{
							OFFSET 0.667525 10.2797 -1.57149
							CHANNELS 6 Xposition Yposition Zposition Zrotation Xrotation Yrotation
							End Site
							{
								OFFSET 0 0 0
							}
						}
					}
				}
				JOINT lclavicle
				{
					OFFSET 0.0883157 12.5016 0.82912
					CHANNELS 6 Xposition Yposition Zposition Zrotation Xrotation Yrotation
					JOINT lhumerus
					{
						OFFSET 20.61 4.45006 1.43784
						CHANNELS 6 Xposition Yposition Zposition Zrotation Xrotation Yrotation
						JOINT lradius
						{
							OFFSET 0 -30.3438 0
							CHANNELS 6 Xposition Yposition Zposition Zrotation Xrotation Yrotation
							JOINT lwrist
							{
								OFFSET 0 -18.964 0
								CHANNELS 6 Xposition Yposition Zposition Zrotation Xrotation Yrotation
								JOINT lhand
								{
									OFFSET 0 -9.48199 0
									CHANNELS 6 Xposition Yposition Zposition Zrotation Xrotation Yrotation
									JOINT lfingers
									{
										OFFSET 0 -3.17138 0
										CHANNELS 6 Xposition Yposition Zposition Zrotation Xrotation Yrotation
										End Site
										{
											OFFSET 0 -2.55685 0
										}
									}
								}
								JOINT lthumb
								{
									OFFSET 0 -9.48199 0
									CHANNELS 6 Xposition Yposition Zposition Zrotation Xrotation Yrotation
									End Site
									{
										OFFSET 0 -3.67114 0
									}
								}
							}
						}
					}
				}
				JOINT rclavicle
				{
					OFFSET 0.0883157 12.5016 0.82912
					CHANNELS 6 Xposition Yposition Zposition Zrotation Xrotation Yrotation
					JOINT rhumerus
					{
						OFFSET -20.61 4.45 1.44
						CHANNELS 6 Xposition Yposition Zposition Zrotation Xrotation Yrotation
						JOINT rradius
						{
							OFFSET 0 -29.5102 0
							CHANNELS 6 Xposition Yposition Zposition Zrotation Xrotation Yrotation
							JOINT rwrist
							{
								OFFSET 0 -19.2342 0
								CHANNELS 6 Xposition Yposition Zposition Zrotation Xrotation Yrotation
								JOINT rhand
								{
									OFFSET 0 -9.61712 0
									CHANNELS 6 Xposition Yposition Zposition Zrotation Xrotation Yrotation
									JOINT rfingers
									{
										OFFSET 0 -3.29215 0
										CHANNELS 6 Xposition Yposition Zposition Zrotation Xrotation Yrotation
										End Site
										{
											OFFSET 0 -2.557 0
										}
									}
								}
								JOINT rthumb
								{
									OFFSET 0 -9.61712 0
									CHANNELS 6 Xposition Yposition Zposition Zrotation Xrotation Yrotation
									End Site
									{
										OFFSET 0 -3.671 0
									}
								}
							}
						}
					}
				}
			}
		}
	}
	JOINT rfemur
	{
		OFFSET -8.46272 -9.62775 4.76248
		CHANNELS 6 Xposition Yposition Zposition Zrotation Xrotation Yrotation
		JOINT rtibia
		{
			OFFSET 1.00552e-005 -38.0331 0
			CHANNELS 6 Xposition Yposition Zposition Zrotation Xrotation Yrotation
			JOINT rfoot
			{
				OFFSET 1.14428e-005 -43.2815 0
				CHANNELS 6 Xposition Yposition Zposition Zrotation Xrotation Yrotation
				JOINT rtoes
				{
					OFFSET 0 -14.1868 -3.08763
					CHANNELS 6 Xposition Yposition Zposition Zrotation Xrotation Yrotation
					End Site
					{
						OFFSET 0 -7.27332 0
					}
				}
			}
		}
	}
	JOINT lfemur
	{
		OFFSET 9.10607 -9.62778 4.76249
		CHANNELS 6 Xposition Yposition Zposition Zrotation Xrotation Yrotation
		JOINT ltibia
		{
			OFFSET -1.01399e-005 -38.3535 0
			CHANNELS 6 Xposition Yposition Zposition Zrotation Xrotation Yrotation
			JOINT lfoot
			{
				OFFSET -1.12937e-005 -42.7176 0
				CHANNELS 6 Xposition Yposition Zposition Zrotation Xrotation Yrotation
				JOINT ltoes
				{
					OFFSET 0 -13.9965 -2.83857
					CHANNELS 6 Xposition Yposition Zposition Zrotation Xrotation Yrotation
					End Site
					{
						OFFSET 0 -7.16348 0
					}
				}
			}
		}
	}
}
MOTION
Frames: 4
Frame Time: 0.00833333
3.95595	100.616	81.533	1.79389	5.3487	2.97167	0 0 0 -4.24193	-4.1454	-1.72234	-0.214371 12.3768 -1.12219 1.23298	-1.4451	-2.14414	-0.00137213 12.3873 0.296195 3.55124	1.04021	-1.06861	0.0883157 12.5016 0.82912 -2.59846	-9.59154	-2.96938	-1 10.1794 0.943522 -0.601914	17.7629	-3.59008	0.667525 10.2797 -1.57149 2.03869	2.10145	-1.21483	0.0883157 12.5016 0.82912 -15	0	-0	20.61 4.45006 1.43784 14.9849	-6.28695	162.277	0 -30.3438 0 -0	22.2572	-0	0 -18.964 0 1.30035e-014	-3.65964e-015	-121.437	0 -9.48199 0 1.22245	4.37968	-2.58917e-014	0 -3.17138 0 -0	7.12502	-0	0 -9.48199 0 25	15	-1.36605e-015	0.0883157 12.5016 0.82912 15	0	-0	-20.61 4.45 1.44 -19.5956	9.34519	-164.816	0 -29.5102 0 -0	33.5607	-0	0 -19.2342 0 1.91592e-016	-1.62849e-015	103.42	0 -9.61712 0 1.22	4.38	-0	0 -3.29215 0 -0	7.12502	-0	0 -9.61712 0 25	15	-7.97034e-015	-8.46272 -9.62775 4.76248 -3.5737	-30.8099	-10.624	1.00552e-005 -38.0331 0 -0	61.9444	-0	1.14428e-005 -43.2815 0 -4.56776e-015	-73.8672	-4.89348e-015	0 -14.1868 -3.08763 -0	-34.839	-0	9.10607 -9.62778 4.76249 -6.55206	-7.90473	3.60721	-1.01399e-005 -38.3535 0 -0	16.0784	-0	-1.12937e-005 -42.7176 0 7.58648e-016	-73.0506	7.97122e-016	0 -13.9965 -2.83857 -0	-24.037	-0
3.94374	100.475	82.5412	1.93776	5.30145	3.35589	0 0 0 -4.49996	-4.04348	-1.90338	-0.214371 12.3768 -1.12219 1.25273	-1.43222	-2.38026	-0.00137213 12.3873 0.296195 3.70793	1.02805	-1.18674	0.0883157 12.5016 0.82912 -2.60992	-9.6495	-2.96873	-1 10.1794 0.943522 -0.585036	17.886	-3.59261	0.667525 10.2797 -1.57149 2.0527	2.16228	-1.2154	0.0883157 12.5016 0.82912 -15	0	-0	20.61 4.45006 1.43784 14.7584	-7.46161	161.877	0 -30.3438 0 -0	23.3105	-0	0 -18.964 0 1.30769e-014	-3.53674e-015	-120.268	0 -9.48199 0 1.22245	4.37968	-2.58917e-014	0 -3.17138 0 -0	7.12502	-0	0 -9.48199 0 25	15	-1.36605e-015	0.0883157 12.5016 0.82912 15	0	-0	-20.61 4.45 1.44 -19.7693	10.0339	-164.757	0 -29.5102 0 -0	33.7943	-0	0 -19.2342 0 1.84802e-016	-1.59977e-015	103.179	0 -9.61712 0 1.22	4.38	-0	0 -3.29215 0 -0	7.12502	-0	0 -9.61712 0 25	15	-7.97034e-015	-8.46272 -9.62775 4.76248 -3.79519	-31.5771	-10.5217	1.00552e-005 -38.0331 0 -0	60.1746	-0	1.14428e-005 -43.2815 0 -4.73297e-015	-74.3878	-5.05239e-015	0 -14.1868 -3.08763 -0	-35.4285	-0	9.10607 -9.62778 4.76249 -6.71171	-7.25632	3.48074	-1.01399e-005 -38.3535 0 -0	16.2147	-0	-1.12937e-005 -42.7176 0 7.89804e-016	-73.6799	8.26975e-016	0 -13.9965 -2.83857 -0	-23.7142	-0
3.9298	100.343	83.5607	2.09206	5.26973	3.71732	0 0 0 -4.76646	-3.95724	-2.07405	-0.214371 12.3768 -1.12219 1.26357	-1.41497	-2.60116	-0.00137213 12.3873 0.296195 3.85992	1.0294	-1.29784	0.0883157 12.5016 0.82912 -2.63407	-9.69575	-2.97328	-1 10.1794 0.943522 -0.543896	17.9585	-3.603	0.667525 10.2797 -1.57149 2.07416	2.20291	-1.21624	0.0883157 12.5016 0.82912 -15	0	-0	20.61 4.45006 1.43784 14.5344	-8.65924	161.506	0 -30.3438 0 -0	24.3647	-0	0 -18.964 0 1.31373e-014	-3.43108e-015	-119.274	0 -9.48199 0 1.22245	4.37968	-2.58917e-014	0 -3.17138 0 -0	7.12502	-0	0 -9.48199 0 25	15	-1.36605e-015	0.0883157 12.5016 0.82912 15	0	-0	-20.61 4.45 1.44 -19.9183	10.7059	-164.764	0 -29.5102 0 -0	34.0092	-0	0 -19.2342 0 1.7959e-016	-1.57734e-015	102.991	0 -9.61712 0 1.22	4.38	-0	0 -3.29215 0 -0	7.12502	-0	0 -9.61712 0 25	15	-7.97034e-015	-8.46272 -9.62775 4.76248 -3.99091	-32.2687	-10.2778	1.00552e-005 -38.0331 0 -0	58.1821	-0	1.14428e-005 -43.2815 0 -4.88125e-015	-74.8279	-5.19536e-015	0 -14.1868 -3.08763 -0	-35.7932	-0	9.10607 -9.62778 4.76249 -6.87761	-6.493	3.37062	-1.01399e-005 -38.3535 0 -0	16.1014	-0	-1.12937e-005 -42.7176 0 8.17074e-016	-74.1945	8.53179e-016	0 -13.9965 -2.83857 -0	-23.4415	-0
3.91207	100.216	84.5887	2.25221	5.2574	4.0549	0 0 0 -5.03351	-3.89737	-2.23415	-0.214371 12.3768 -1.12219 1.26506	-1.39242	-2.80623	-0.00137213 12.3873 0.296195 4.0017	1.0507	-1.4018	0.0883157 12.5016 0.82912 -2.66493	-9.73238	-2.98175	-1 10.1794 0.943522 -0.482492	17.9837	-3.62037	0.667525 10.2797 -1.57149 2.10086	2.22468	-1.21707	0.0883157 12.5016 0.82912 -15	0	-0	20.61 4.45006 1.43784 14.3081	-9.88275	161.161	0 -30.3438 0 -0	25.4152	-0	0 -18.964 0 1.31885e-014	-3.33807e-015	-118.407	0 -9.48199 0 1.22245	4.37968	-2.58917e-014	0 -3.17138 0 -0	7.12502	-0	0 -9.48199 0 25	15	-1.36605e-015	0.0883157 12.5016 0.82912 15	0	-0	-20.61 4.45 1.44 -20.0344	11.3543	-164.846	0 -29.5102 0 -0	34.1881	-0	0 -19.2342 0 1.76138e-016	-1.5623e-015	102.865	0 -9.61712 0 1.22	4.38	-0	0 -3.29215 0 -0	7.12502	-0	0 -9.61712 0 25	15	-7.97034e-015	-8.46272 -9.62775 4.76248 -4.15443	-32.8938	-9.87248	1.00552e-005 -38.0331 0 -0	55.9791	-0	1.14428e-005 -43.2815 0 -5.01549e-015	-75.2059	-5.32503e-015	0 -14.1868 -3.08763 -0	-35.9234	-0	9.10607 -9.62778 4.76249 -7.04727	-5.59806	3.26755	-1.01399e-005 -38.3535 0 -0	15.7007	-0	-1.12937e-005 -42.7176 0 8.38404e-016	-74.5755	8.73723e-016	0 -13.9965 -2.83857 -0	-23.2307	-0
